<svg xmlns="http://www.w3.org/2000/svg" width="1000" height="552" viewBox="0 0 1000 552"><defs><marker id="a" markerWidth="10" markerHeight="10" refX="8" refY="4" orient="auto"><path d="M0,0 L8,4 L0,8" fill="none" stroke="#52677a" stroke-width="1.5"/></marker></defs><rect width="1000" height="552" fill="white"/><rect x="10" y="15" width="980" height="170" fill="#f5f8fb" stroke="#c5d0da"/><rect x="10" y="15" width="130" height="170" fill="#e6eef5" stroke="#c5d0da"/><text x="75" y="88" text-anchor="middle" fill="#223449" font-family="Arial" font-size="22">Colaborador</text><rect x="10" y="185" width="980" height="300" fill="#f5f8fb" stroke="#c5d0da"/><rect x="10" y="185" width="130" height="300" fill="#e6eef5" stroke="#c5d0da"/><text x="75" y="323" text-anchor="middle" fill="#223449" font-family="Arial" font-size="22">Contrapartes</text><text x="75" y="351" text-anchor="middle" fill="#223449" font-family="Arial" font-size="22">responsables</text><circle cx="190" cy="100" r="19" fill="white" stroke="#345b78" stroke-width="2.5"/><rect x="240" y="61" width="225" height="78" rx="12" fill="white" stroke="#345b78" stroke-width="2.4"/><text x="352.5" y="93" text-anchor="middle" fill="#223449" font-family="Arial" font-size="24">Elegir contacto</text><text x="352.5" y="123" text-anchor="middle" fill="#223449" font-family="Arial" font-size="24">y enviar consulta</text><polyline points="209,100 240,100" fill="none" stroke="#52677a" stroke-width="2.5"  marker-end="url(#a)"/><rect x="240" y="225" width="225" height="78" rx="12" fill="white" stroke="#345b78" stroke-width="2.4"/><text x="352.5" y="257" text-anchor="middle" fill="#223449" font-family="Arial" font-size="24">Recibir y revisar</text><text x="352.5" y="287" text-anchor="middle" fill="#223449" font-family="Arial" font-size="24">consulta</text><polyline points="352,139 352,225" fill="none" stroke="#52677a" stroke-width="2.5"  marker-end="url(#a)"/><path d="M 580 227 L 622 264 L 580 301 L 538 264 Z" fill="#fff4d8" stroke="#ae852e" stroke-width="2.3"/><text x="580" y="272" text-anchor="middle" fill="#223449" font-family="Arial" font-size="28">×</text><polyline points="465,264 538,264" fill="none" stroke="#52677a" stroke-width="2.5"  marker-end="url(#a)"/><text x="580" y="191" text-anchor="middle" fill="#223449" font-family="Arial" font-size="22">¿Corresponde</text><text x="580" y="219" text-anchor="middle" fill="#223449" font-family="Arial" font-size="22">a su área?</text><rect x="710" y="225" width="220" height="78" rx="12" fill="white" stroke="#345b78" stroke-width="2.4"/><text x="820" y="272" text-anchor="middle" fill="#223449" font-family="Arial" font-size="24">Responder</text><polyline points="622,264 710,264" fill="none" stroke="#52677a" stroke-width="2.5"  marker-end="url(#a)"/><text x="665" y="249" text-anchor="middle" fill="#223449" font-family="Arial" font-size="20">Sí</text><circle cx="958" cy="385" r="19" fill="white" stroke="#345b78" stroke-width="5"/><polyline points="820,303 820,385 939,385" fill="none" stroke="#52677a" stroke-width="2.5"  marker-end="url(#a)"/><rect x="240" y="372" width="225" height="78" rx="12" fill="white" stroke="#345b78" stroke-width="2.4"/><text x="352.5" y="404" text-anchor="middle" fill="#223449" font-family="Arial" font-size="24">Reenviar a otra</text><text x="352.5" y="434" text-anchor="middle" fill="#223449" font-family="Arial" font-size="24">contraparte</text><polyline points="580,301 580,411 465,411" fill="none" stroke="#52677a" stroke-width="2.5"  marker-end="url(#a)"/><text x="601" y="363" text-anchor="middle" fill="#223449" font-family="Arial" font-size="20">No</text><polyline points="240,411 188,411 188,264 240,264" fill="none" stroke="#52677a" stroke-width="2.5"  marker-end="url(#a)"/><text x="500" y="526" text-anchor="middle" fill="#223449" font-family="Arial" font-size="21">Sin registro central: el seguimiento depende de los mensajes y de las personas.</text></svg>